<svg xmlns="http://www.w3.org/2000/svg" width="512" height="512" viewBox="0 0 512 512">
  <defs>
    <linearGradient id="g" x1="0" y1="0" x2="1" y2="1">
      <stop offset="0" stop-color="#2563eb"/>
      <stop offset="1" stop-color="#0e7490"/>
    </linearGradient>
  </defs>
  <rect width="512" height="512" rx="112" fill="url(#g)"/>
  <path d="M168 120h136l64 64v208a16 16 0 0 1-16 16H168a16 16 0 0 1-16-16V136a16 16 0 0 1 16-16z" fill="#fff"/>
  <path d="M304 120v48a16 16 0 0 0 16 16h48z" fill="#bfdbfe"/>
  <rect x="192" y="220" width="128" height="16" rx="8" fill="#93c5fd"/>
  <rect x="192" y="256" width="96" height="16" rx="8" fill="#93c5fd"/>
  <circle cx="320" cy="340" r="52" fill="#16a34a"/>
  <path d="M296 340l16 16 32-32" stroke="#fff" stroke-width="14" fill="none" stroke-linecap="round" stroke-linejoin="round"/>
</svg>
